<?xml version="1.0" standalone="no"?>
<!DOCTYPE svg PUBLIC "-//W3C//DTD SVG 20010904//EN"
 "http://www.w3.org/TR/2001/REC-SVG-20010904/DTD/svg10.dtd">
<svg version="1.0" xmlns="http://www.w3.org/2000/svg"
 width="400.000000pt" height="400.000000pt" viewBox="0 0 400.000000 400.000000"
 preserveAspectRatio="xMidYMid meet">
<metadata>
Created by potrace 1.11, written by Peter Selinger 2001-2013
</metadata>
<g transform="translate(0.000000,400.000000) scale(0.100000,-0.100000)"
fill="#000000" stroke="none">
<path d="M0 2340 l0 -1660 218 -2 217 -3 4 -25 c1 -14 8 -28 15 -32 6 -4 201
-8 433 -8 l422 0 3 -27 3 -28 345 0 345 0 3 26 c2 20 10 28 32 32 22 5 29 12
32 34 2 22 8 28 28 28 25 0 25 -1 21 -67 l-3 -68 46 0 46 0 -2 98 c-3 91 -2
97 17 97 17 0 20 -8 23 -49 2 -28 -2 -60 -8 -71 -7 -12 -10 -33 -8 -46 3 -22
8 -24 53 -24 48 0 50 1 55 30 3 17 10 28 15 25 6 -3 9 -9 7 -14 -1 -4 0 -17 3
-27 6 -17 17 -19 126 -19 117 0 119 0 119 -22 0 -38 14 -50 56 -46 36 3 39 6
42 36 2 17 7 32 12 32 5 0 10 -15 12 -32 3 -31 5 -33 47 -36 47 -4 61 6 61 46
0 20 4 22 60 22 l60 0 0 35 c0 26 4 33 14 29 24 -9 56 15 56 41 0 14 5 25 10
25 6 0 10 -11 10 -24 0 -21 5 -25 38 -28 32 -3 37 -7 40 -29 3 -24 8 -27 53
-32 62 -8 69 -12 69 -43 0 -23 3 -24 60 -24 58 0 60 -1 60 -26 0 -19 7 -28 28
-36 17 -7 33 -23 40 -40 8 -21 17 -28 36 -28 18 0 26 -5 26 -18 0 -23 19 -42
41 -42 12 0 19 -9 21 -27 2 -22 9 -29 29 -31 20 -2 28 -10 32 -32 5 -22 12
-29 34 -32 26 -3 28 -6 31 -56 2 -40 -1 -54 -12 -58 -26 -10 -66 5 -67 24 0
10 -3 12 -6 5 -3 -10 -40 -13 -134 -13 -96 0 -129 3 -129 13 0 22 -18 40 -42
42 -12 1 -22 8 -20 15 1 7 0 21 -3 31 -5 16 -16 19 -70 19 -52 0 -63 3 -59 14
3 8 1 24 -6 35 -9 19 -20 21 -95 21 -84 0 -85 0 -85 25 0 20 -6 25 -34 31 -19
3 -60 4 -90 2 -52 -3 -56 -1 -56 19 0 35 -30 43 -150 43 -120 0 -150 -8 -150
-43 l0 -22 -635 0 -635 0 0 26 c0 20 -6 28 -25 33 -14 4 -150 6 -303 6 -152 0
-283 0 -289 0 -7 0 -12 3 -12 7 1 5 1 18 0 31 l-1 22 -290 0 -290 0 0 -225 0
-225 2000 0 2000 0 0 2000 0 2000 -2000 0 -2000 0 0 -1660z m2180 930 c0 -19
32 -44 43 -33 4 3 11 -6 16 -20 8 -19 18 -26 43 -29 28 -2 34 -8 36 -30 2 -15
-1 -35 -6 -44 -5 -9 -7 -27 -4 -40 4 -22 9 -25 41 -22 l36 3 0 65 c0 63 -1 65
-27 68 -22 3 -28 9 -28 27 0 14 -9 29 -20 35 -11 6 -20 8 -20 4 0 -3 -7 -1
-15 6 -27 22 -16 30 40 30 49 0 55 -2 55 -21 0 -14 10 -24 29 -32 16 -6 32
-19 34 -28 3 -11 17 -19 38 -21 29 -2 35 -7 37 -31 3 -28 0 -30 -51 -41 -27
-6 -28 -9 -25 -59 3 -51 4 -52 38 -57 31 -4 35 -9 38 -38 l3 -33 -68 3 c-67 3
-68 3 -71 -24 -3 -21 -9 -27 -30 -30 -23 -3 -27 -8 -30 -41 l-3 -38 38 3 c33
3 38 7 41 31 5 39 38 37 46 -3 3 -20 12 -30 23 -30 10 0 25 -5 33 -10 13 -9
13 -11 0 -20 -15 -10 -188 -14 -212 -5 -9 4 -12 18 -10 43 5 53 -17 80 -55 67
-25 -9 -29 -16 -33 -60 -6 -55 -23 -66 -43 -25 -7 14 -23 26 -35 28 -21 3 -22
8 -22 87 0 74 -2 86 -20 95 -23 12 -54 0 -64 -26 -8 -20 -8 -122 0 -151 4 -14
15 -23 33 -25 15 -2 26 -9 26 -18 0 -11 -12 -15 -50 -15 l-50 0 -5 55 c-5 50
-7 55 -31 58 -34 4 -47 -14 -51 -68 l-3 -45 -77 -3 -77 -3 -3 28 c-2 23 -8 29
-35 31 l-33 3 0 80 c0 78 1 80 23 77 19 -3 22 -8 19 -46 -4 -49 10 -72 44 -72
28 0 44 26 44 74 0 37 -32 82 -50 71 -6 -4 -10 3 -10 14 0 12 5 21 12 21 18 0
48 31 48 51 0 15 10 19 58 21 54 3 57 4 60 31 3 25 6 27 50 27 44 0 49 -3 59
-30 8 -22 18 -30 35 -30 36 0 48 19 48 71 0 45 2 48 28 51 21 2 28 9 30 31 4
33 42 40 42 7z m555 -60 c0 -12 -20 -16 -104 -18 -75 -2 -107 1 -112 10 -17
27 9 33 113 28 83 -4 103 -8 103 -20z m45 -99 c42 -12 35 -35 -15 -50 -57 -17
-75 -10 -75 29 0 27 3 30 33 29 17 -1 43 -4 57 -8z m-100 -86 c0 -22 31 -51
42 -39 3 2 11 -3 18 -12 19 -22 -2 -34 -57 -34 -39 0 -43 2 -43 25 0 30 -26
45 -79 45 -42 0 -63 16 -40 31 8 5 47 9 87 9 70 0 72 -1 72 -25z m231 15 c11
0 19 -7 19 -15 0 -11 -12 -15 -50 -15 -44 0 -50 2 -50 21 0 19 4 21 31 15 17
-3 40 -6 50 -6z m75 -71 c10 -17 -13 -36 -27 -22 -12 12 -4 33 11 33 5 0 12
-5 16 -11z m-41 -64 l0 -30 -65 0 -65 0 2 -127 1 -128 -28 0 c-34 0 -51 -19
-43 -48 5 -19 12 -22 62 -22 l56 0 13 -40 c6 -22 12 -47 12 -55 0 -12 13 -15
59 -15 58 0 60 -1 63 -27 2 -20 9 -29 26 -31 19 -3 22 1 22 27 0 25 -4 31 -21
31 -15 0 -20 5 -17 22 3 18 10 21 47 21 40 0 45 -3 57 -32 11 -25 19 -32 36
-29 18 2 24 11 26 36 3 28 7 32 34 32 l31 0 -6 -52 c-5 -38 -3 -56 8 -68 7 -8
15 -38 17 -65 3 -43 6 -50 26 -53 18 -3 22 -10 22 -36 0 -29 -4 -34 -30 -39
-40 -9 -42 -44 -3 -49 19 -2 29 -10 33 -27 5 -24 18 -34 53 -45 10 -3 17 -15
17 -30 0 -19 6 -25 28 -28 26 -3 27 -6 30 -65 3 -60 2 -63 -23 -69 -39 -10
-55 11 -55 72 0 50 -1 53 -27 56 -19 2 -29 10 -33 28 -4 15 -15 26 -30 30 -18
4 -26 14 -28 32 -2 21 -9 28 -30 30 -18 2 -28 10 -32 28 -8 33 -47 40 -52 9
-7 -51 -66 -50 -78 2 -8 35 -32 30 -42 -9 -8 -31 -11 -33 -46 -30 -35 3 -37 5
-37 38 0 31 4 36 33 45 55 16 30 30 -53 30 -81 0 -113 -17 -55 -28 27 -6 30
-10 30 -42 l0 -36 -42 3 c-35 2 -44 7 -46 25 -2 13 -11 23 -25 25 -12 2 -27
14 -34 28 -14 29 -35 33 -39 7 -1 -11 -5 -22 -9 -25 -3 -3 -90 -6 -193 -7
l-187 0 -3 -27 c-2 -18 -11 -28 -28 -32 -19 -5 -25 -12 -22 -29 3 -19 10 -22
56 -25 49 -3 54 -6 64 -33 6 -17 17 -29 27 -29 22 0 41 -19 41 -41 0 -13 13
-19 53 -26 47 -7 52 -11 52 -33 0 -20 -6 -26 -27 -28 -22 -3 -28 -9 -28 -27 0
-13 -4 -27 -10 -30 -7 -4 -163 -22 -222 -25 -4 0 -8 -10 -10 -22 -2 -16 -11
-24 -30 -26 -19 -2 -28 -10 -30 -25 -2 -18 -13 -23 -63 -32 -51 -8 -60 -13
-63 -32 -2 -14 -12 -25 -27 -29 -30 -7 -45 2 -45 27 0 29 -48 26 -52 -3 -3
-21 -9 -23 -73 -26 -94 -4 -113 2 -117 36 -2 21 -9 28 -30 30 -22 3 -28 9 -28
27 0 18 6 24 28 27 21 2 28 9 30 30 3 21 9 27 30 30 22 2 28 9 30 35 3 26 8
32 30 35 37 4 39 49 2 58 -18 4 -25 13 -25 30 0 21 6 26 40 32 22 4 61 7 88 7
43 1 47 3 47 25 0 18 -6 25 -22 28 -20 3 -23 10 -26 60 -3 64 -5 65 -92 70
-38 3 -45 7 -50 28 -3 14 -14 26 -25 28 -39 6 -75 25 -75 38 0 8 -12 16 -27
20 -49 10 -51 12 -55 41 -2 22 -9 29 -33 33 -24 4 -31 11 -33 33 -2 19 -11 31
-28 38 -17 6 -24 15 -22 27 3 15 17 17 118 17 112 0 115 -1 118 -22 5 -32 25
-35 213 -31 l164 4 5 29 c6 36 46 49 56 18 13 -42 22 -48 75 -53 47 -4 54 -8
59 -30 4 -18 13 -26 33 -28 24 -3 27 0 27 26 0 28 2 30 57 38 49 8 58 12 63
34 4 15 15 26 30 30 15 4 26 15 30 30 4 19 14 26 40 30 26 4 36 10 38 27 2 15
11 23 30 25 21 2 28 9 30 31 2 17 9 27 19 27 30 0 53 31 53 72 0 65 -13 78
-75 78 -48 0 -55 2 -55 20 0 18 7 20 56 20 53 0 56 2 67 30 10 27 16 30 57 30
25 0 52 5 60 10 8 6 26 9 40 8 21 -3 25 -8 25 -33z m-385 -35 c0 -43 -3 -50
-20 -50 -17 0 -20 7 -20 50 0 43 3 50 20 50 17 0 20 -7 20 -50z m490 -30 c0
-23 -25 -27 -33 -6 -7 16 1 26 20 26 7 0 13 -9 13 -20z m-420 -60 c0 -27 -3
-30 -29 -30 -21 0 -32 6 -36 20 -9 28 2 40 36 40 26 0 29 -3 29 -30z m360 10
c24 -15 -3 -33 -52 -33 -36 0 -43 3 -46 21 -3 20 1 22 40 22 24 0 50 -5 58
-10z m-1550 -75 c0 -24 -3 -25 -60 -25 -57 0 -60 1 -60 25 0 24 3 25 60 25 57
0 60 -1 60 -25z m1240 -6 c0 -20 -24 -26 -35 -9 -4 6 -4 17 -1 25 7 20 36 7
36 -16z m-1432 -56 c-3 -26 -7 -28 -56 -31 -40 -2 -54 1 -58 12 -13 34 3 46
61 46 56 0 56 0 53 -27z m316 11 c7 -19 -10 -44 -31 -44 -17 0 -27 24 -19 45
7 20 42 19 50 -1z m1366 -12 c0 -25 19 -42 48 -42 17 0 27 8 35 30 14 38 35
39 39 3 2 -23 8 -29 36 -31 24 -2 32 -8 32 -23 0 -16 -7 -19 -55 -19 -43 0
-56 -4 -64 -19 -6 -10 -8 -21 -5 -23 2 -3 -3 -11 -12 -18 -13 -12 -17 -11 -25
1 -5 8 -9 22 -9 32 0 11 -10 20 -30 24 -28 5 -30 8 -30 54 0 42 3 49 20 49 13
0 20 -7 20 -18z m-1805 -62 c0 -25 -2 -25 -88 -28 -71 -2 -88 0 -93 13 -15 38
2 46 93 43 86 -3 88 -3 88 -28z m310 0 c0 -18 -6 -26 -23 -28 -24 -4 -38 18
-28 44 3 9 15 14 28 12 17 -2 23 -10 23 -28z m-565 -45 c7 -8 10 -22 6 -30 -8
-23 -171 -22 -180 1 -12 32 13 44 89 44 52 0 76 -4 85 -15z m2310 -19 c0 -15
-24 -28 -34 -19 -13 14 -5 33 14 33 11 0 20 -6 20 -14z m-2555 -61 c0 -14 -8
-21 -27 -23 -24 -3 -28 0 -28 23 0 23 4 26 28 23 19 -2 27 -9 27 -23z m2813
-287 c7 -7 12 -20 12 -30 0 -11 7 -18 18 -18 23 0 42 -19 42 -42 0 -16 11 -23
32 -19 11 1 21 -46 14 -65 -9 -24 -49 -13 -56 16 -4 15 -15 26 -30 30 -15 4
-26 15 -30 30 -4 15 -14 26 -27 28 -31 5 -46 28 -39 57 7 27 42 35 64 13z
m-493 -148 c0 -20 -6 -26 -28 -28 -18 -2 -29 2 -33 12 -11 28 4 48 33 44 22
-2 28 -8 28 -28z m181 -28 c7 -4 14 -18 15 -31 3 -17 11 -25 27 -26 59 -4 54
-85 -5 -85 -18 0 -23 -6 -23 -24 0 -52 -73 -61 -86 -11 -8 31 11 55 42 55 17
0 24 6 24 20 0 17 -7 20 -49 20 -46 0 -49 -1 -55 -31 -5 -27 -9 -30 -38 -27
-30 3 -33 6 -33 38 0 27 5 37 23 45 12 5 22 17 22 25 0 9 5 21 12 28 13 13
106 16 124 4z m202 -160 c3 -29 0 -35 -27 -45 -34 -12 -42 -37 -13 -37 23 0
42 -19 42 -42 0 -11 7 -18 18 -18 25 0 42 -19 42 -47 0 -16 6 -23 20 -23 17 0
20 7 20 53 0 57 12 77 45 77 33 0 45 -20 45 -74 0 -60 -7 -73 -40 -77 -14 -2
-25 -11 -26 -19 -2 -34 -5 -39 -24 -45 -29 -9 -60 12 -60 40 0 19 -5 25 -23
25 -28 0 -47 17 -47 42 0 26 -28 22 -32 -4 -2 -18 -11 -24 -38 -28 -29 -4 -36
-10 -38 -32 -3 -24 -8 -28 -33 -28 -27 0 -30 3 -27 28 2 21 9 28 30 30 22 3
27 9 30 35 2 22 10 35 26 42 27 12 29 35 3 35 -26 0 -43 24 -39 57 2 22 9 29
29 31 21 2 28 10 33 33 5 28 9 30 43 27 35 -3 38 -6 41 -36z m238 21 c10 -33
21 -48 35 -48 11 0 15 -23 17 -102 2 -93 1 -103 -15 -103 -36 0 -42 15 -45
100 -3 81 -4 84 -28 90 -25 6 -37 36 -26 66 8 20 55 18 62 -3z m-1828 -2 c19
-11 11 -45 -11 -49 -19 -4 -32 20 -23 43 6 17 15 19 34 6z m1082 -81 c9 -39
45 -39 59 0 14 43 53 39 61 -5 4 -24 11 -31 35 -35 30 -5 30 -6 27 -63 -3 -46
-1 -57 12 -58 9 -1 22 -2 28 -3 7 0 15 -14 18 -31 4 -23 11 -31 32 -33 20 -2
28 -10 33 -33 7 -31 18 -34 86 -23 29 5 37 12 45 38 7 24 15 31 34 31 21 0 26
-5 28 -33 3 -29 0 -33 -27 -38 -28 -6 -30 -10 -37 -61 -3 -29 -3 -57 0 -61 10
-9 131 -15 160 -8 17 4 26 14 28 33 3 23 10 29 52 39 64 17 75 28 40 45 -61
31 -57 84 7 84 30 0 34 -4 37 -27 2 -20 9 -28 22 -28 22 0 34 -31 26 -66 -4
-15 -14 -24 -26 -24 -13 0 -20 -7 -20 -20 0 -13 7 -20 19 -20 29 0 32 -11 25
-104 -7 -82 -8 -85 -33 -88 -24 -3 -26 -7 -31 -63 -5 -56 -7 -60 -32 -63 -25
-3 -27 -7 -30 -60 -3 -51 -5 -57 -26 -60 -24 -4 -44 -40 -41 -76 4 -53 2 -55
-58 -58 -52 -3 -58 -5 -63 -28 -5 -22 -12 -26 -60 -30 l-55 -5 -3 -57 c-3 -54
-5 -58 -27 -58 -18 0 -25 6 -25 19 0 22 -17 37 -45 43 -31 5 -26 42 7 46 29 3
42 24 32 54 -4 15 -13 18 -37 16 -27 -2 -33 -8 -35 -31 -3 -22 -8 -28 -25 -25
-13 2 -23 13 -27 28 -4 15 -15 26 -30 30 -14 3 -27 15 -29 25 -6 34 -22 45
-68 45 -52 0 -83 -14 -83 -38 0 -15 -9 -17 -74 -14 -103 6 -119 -4 -114 -73
l3 -54 -65 -3 c-64 -3 -65 -3 -68 -33 -3 -28 -5 -30 -45 -29 -27 1 -41 6 -39
14 7 29 -10 50 -39 50 -16 0 -29 5 -29 10 0 6 11 10 25 10 27 0 45 25 45 62 0
22 2 23 84 20 78 -3 85 -2 91 17 3 12 3 25 0 31 -4 6 -65 10 -153 10 -150 1
-182 8 -182 41 0 8 -10 19 -22 24 -13 6 -27 19 -32 30 -10 24 -49 45 -83 45
-13 0 -23 3 -24 8 -2 20 -8 44 -12 49 -5 4 -29 10 -49 12 -5 1 -8 12 -8 25 0
18 6 25 23 28 16 2 23 11 25 31 3 25 0 28 -20 25 -15 -2 -24 -11 -26 -25 -3
-18 -10 -23 -33 -23 -27 0 -29 3 -29 39 0 21 -3 59 -6 85 -6 40 -10 46 -30 46
-18 0 -23 6 -26 33 -2 27 -9 34 -36 42 -27 8 -32 14 -30 35 3 23 6 25 47 22
25 -2 64 -1 88 3 37 5 43 10 43 30 0 21 -6 24 -54 30 -34 5 -57 13 -60 22 -8
20 1 33 23 33 24 0 41 20 41 47 0 18 6 23 24 23 21 0 25 -6 28 -32 3 -29 7
-33 36 -36 23 -2 32 -8 32 -21 0 -10 9 -21 19 -24 25 -6 31 0 31 29 0 32 23
37 179 33 l136 -4 0 25 c0 20 -6 26 -27 28 -23 3 -28 8 -28 32 0 25 4 29 33
32 27 2 33 8 35 31 3 21 9 27 27 27 18 0 24 -6 27 -27 2 -24 8 -28 33 -28 22
0 31 5 33 20 6 34 18 38 104 39 75 1 83 3 86 21 6 39 12 46 34 43 14 -2 24
-12 28 -28z m-260 -5 c0 -20 -5 -25 -25 -25 -20 0 -25 5 -25 25 0 20 5 25 25
25 20 0 25 -5 25 -25z m-682 -497 c-2 -15 -11 -24 -25 -26 -19 -3 -23 1 -23
22 0 21 5 26 26 26 21 0 25 -4 22 -22z m870 -561 c4 -20 -25 -34 -40 -19 -15
15 -1 44 19 40 10 -2 19 -11 21 -21z m232 -8 c0 -5 -11 -9 -24 -9 -25 0 -43
-30 -31 -50 4 -6 -13 -10 -44 -10 -28 0 -51 2 -51 5 0 3 16 11 36 20 23 9 35
21 34 32 -1 10 -2 20 -1 23 2 9 81 -2 81 -11z"/>
<path d="M2197 3052 c-23 -26 -22 -94 1 -115 40 -36 72 -10 72 58 0 69 -37 97
-73 57z"/>
<path d="M2132 2403 c2 -22 8 -28 28 -28 20 0 26 6 28 28 3 24 0 27 -28 27
-28 0 -31 -3 -28 -27z"/>
<path d="M2382 2343 c2 -22 8 -28 28 -28 20 0 25 5 25 25 0 20 -6 26 -28 28
-26 3 -28 1 -25 -25z"/>
<path d="M3080 2346 c0 -22 4 -26 31 -26 26 0 30 3 27 23 -2 16 -11 23 -30 25
-24 3 -28 0 -28 -22z"/>
<path d="M3075 2220 c-9 -15 4 -30 26 -30 12 0 19 7 19 20 0 21 -33 29 -45 10z"/>
<path d="M3207 2223 c-3 -5 -2 -15 3 -22 10 -17 43 -6 38 12 -6 15 -34 22 -41
10z"/>
<path d="M2023 2113 c-7 -2 -13 -16 -13 -30 0 -20 4 -24 23 -21 16 2 22 10 22
27 0 25 -11 33 -32 24z"/>
<path d="M2010 1965 c0 -20 5 -25 25 -25 20 0 25 5 25 25 0 20 -5 25 -25 25
-20 0 -25 -5 -25 -25z"/>
<path d="M2260 1965 c0 -20 5 -25 25 -25 20 0 25 5 25 25 0 20 -5 25 -25 25
-20 0 -25 -5 -25 -25z"/>
<path d="M2077 1923 c-4 -3 -7 -15 -7 -25 0 -13 7 -18 25 -18 20 0 25 5 25 25
0 18 -5 25 -18 25 -10 0 -22 -3 -25 -7z"/>
<path d="M2390 1906 c0 -21 5 -26 26 -26 21 0 25 4 22 23 -2 14 -11 23 -25 25
-19 3 -23 -1 -23 -22z"/>
<path d="M1887 1863 c-4 -3 -7 -15 -7 -25 0 -13 7 -18 25 -18 20 0 25 5 25 25
0 18 -5 25 -18 25 -10 0 -22 -3 -25 -7z"/>
<path d="M1955 1791 c-9 -16 3 -31 26 -31 14 0 19 6 17 17 -4 20 -33 29 -43
14z"/>
<path d="M1824 1725 c-10 -25 6 -35 57 -35 41 0 49 3 49 19 0 29 -96 44 -106
16z"/>
<path d="M2574 1535 c-4 -9 -2 -21 4 -27 16 -16 47 -5 47 17 0 26 -42 34 -51
10z"/>
<path d="M2450 1465 c0 -20 5 -25 25 -25 20 0 25 5 25 25 0 20 -5 25 -25 25
-20 0 -25 -5 -25 -25z"/>
<path d="M1957 1363 c-4 -3 -7 -17 -7 -30 0 -29 35 -32 43 -4 7 27 -19 52 -36
34z"/>
<path d="M2080 1340 c0 -13 7 -20 20 -20 13 0 20 7 20 20 0 13 -7 20 -20 20
-13 0 -20 -7 -20 -20z"/>
<path d="M2959 1358 c0 -2 -2 -13 -3 -25 -3 -29 -10 -36 -39 -38 -16 -1 -23
-9 -27 -31 -5 -28 -8 -29 -63 -32 -46 -2 -57 -6 -57 -20 0 -23 -19 -42 -41
-42 -21 0 -33 -29 -15 -36 28 -11 91 1 92 16 2 34 5 39 24 45 35 11 60 -3 60
-36 0 -22 5 -29 20 -29 15 0 20 7 20 25 0 32 30 48 64 35 18 -7 26 -17 26 -34
0 -19 6 -25 28 -28 26 -3 27 -6 30 -60 3 -49 6 -58 22 -58 13 0 20 8 22 28 2
22 8 28 35 30 31 3 54 -17 50 -43 -1 -5 6 -11 15 -13 14 -3 17 6 20 55 l3 58
40 0 c36 0 40 -3 43 -27 2 -20 9 -28 23 -28 16 0 19 7 19 50 0 46 -2 50 -25
50 -23 0 -45 23 -42 45 1 6 -8 11 -20 13 -24 4 -39 19 -44 45 -2 10 -6 17 -9
16 -16 -7 -50 25 -50 46 l0 25 -110 0 c-60 0 -110 -1 -111 -2z m231 -168 c13
0 20 -42 9 -62 -8 -14 -19 -18 -42 -16 -27 3 -33 8 -35 33 -4 31 22 60 46 50
8 -3 17 -5 22 -5z"/>
<path d="M2144 1285 c-3 -8 -3 -19 0 -24 10 -16 36 -1 36 20 0 22 -28 26 -36
4z"/>
<path d="M2271 1291 c-12 -8 -13 -12 -1 -26 12 -14 15 -14 28 -1 8 8 11 19 8
25 -9 13 -16 14 -35 2z"/>
<path d="M2397 1293 c-4 -3 -7 -15 -7 -25 0 -15 8 -18 55 -18 52 0 55 1 55 25
0 23 -3 25 -48 25 -27 0 -52 -3 -55 -7z"/>
<path d="M2210 1226 c-13 -17 -6 -36 15 -36 19 0 26 27 11 39 -10 8 -17 7 -26
-3z"/>
<path d="M2330 1210 c0 -16 5 -21 23 -18 12 2 22 10 22 18 0 8 -10 16 -22 18
-18 3 -23 -2 -23 -18z"/>
<path d="M2580 1090 c0 -17 7 -20 50 -20 43 0 50 3 50 20 0 17 -7 20 -50 20
-43 0 -50 -3 -50 -20z"/>
<path d="M2957 1104 c-9 -10 4 -34 19 -34 8 0 14 9 14 20 0 19 -19 27 -33 14z"/>
<path d="M2453 1037 c-10 -17 15 -28 58 -25 24 2 44 8 44 13 0 13 -94 24 -102
12z"/>
<path d="M2330 965 c0 -11 12 -15 50 -15 38 0 50 4 50 15 0 11 -12 15 -50 15
-38 0 -50 -4 -50 -15z"/>
<path d="M3102 510 c0 -19 2 -27 5 -17 2 9 2 25 0 35 -3 9 -5 1 -5 -18z"/>
<path d="M685 503 c-16 -15 -15 -66 1 -82 9 -9 180 -14 230 -6 l44 6 0 44 c0
30 -5 45 -16 49 -9 3 -67 6 -129 6 -93 0 -117 -3 -130 -17z"/>
<path d="M1366 428 c-9 -35 -7 -45 10 -62 12 -13 39 -16 129 -16 138 0 157 11
139 78 -6 21 -10 22 -139 22 -129 0 -133 -1 -139 -22z"/>
</g>
</svg>
